# xmcd CD database file
#
# Track frame offsets:
#	150
#	41077
#	77532
#	115438
#	156329
#	207454
#	245800
#	284400
#
# Disc length: 4175 seconds
#
# Revision: 0
# Processed by: cddbd v1.5.2PL0 Copyright (c) Steve Scherf et al.
# Submitted via: CDex 1.70beta2
#
DISCID=76104d08
DTITLE=Bobby Hutcherson - Somewhere in the Night
DYEAR=2009
DGENRE=Jazz
TTITLE0=Teddy
TTITLE1=Little B's Poem
TTITLE2=Skj
TTITLE3=Take the Coltrane
TTITLE4=Wise One
TTITLE5=Somewhere in the Night
TTITLE6=My Foolish Heart
TTITLE7=S'Wonderful
EXTD=YEAR: 2009
EXTT0=
EXTT1=
EXTT2=
EXTT3=
EXTT4=
EXTT5=
EXTT6=
EXTT7=
PLAYORDER=
